<svg width="12" height="12" viewBox="0 0 12 12" fill="none" xmlns="http://www.w3.org/2000/svg">
<path d="M6.31082 6.4343L1.04245 11.7027C0.94359 11.8016 0.809512 11.8571 0.669708 11.8571C0.529905 11.8571 0.395827 11.8016 0.296971 11.7027C0.198115 11.6039 0.142578 11.4698 0.142578 11.33C0.142578 11.1902 0.198115 11.0561 0.296971 10.9572L5.19327 6.06156L0.296971 1.16587C0.198115 1.06701 0.142578 0.932932 0.142578 0.793127C0.142578 0.653322 0.198115 0.519243 0.296971 0.420386C0.395827 0.321529 0.529905 0.265991 0.669708 0.265991C0.809512 0.265991 0.94359 0.321529 1.04245 0.420386L6.31082 5.68882C6.3598 5.73774 6.39866 5.79585 6.42518 5.85981C6.45169 5.92376 6.46533 5.99232 6.46533 6.06156C6.46533 6.13079 6.45169 6.19935 6.42518 6.26331C6.39866 6.32726 6.3598 6.38537 6.31082 6.4343ZM11.5792 5.68882L6.31082 0.420386C6.21196 0.321529 6.07789 0.265991 5.93808 0.265991C5.79828 0.265991 5.6642 0.321529 5.56535 0.420386C5.46649 0.519243 5.41095 0.653322 5.41095 0.793127C5.41095 0.932932 5.46649 1.06701 5.56535 1.16587L10.4616 6.06156L5.56535 10.9572C5.46649 11.0561 5.41095 11.1902 5.41095 11.33C5.41095 11.4698 5.46649 11.6039 5.56535 11.7027C5.6642 11.8016 5.79828 11.8571 5.93808 11.8571C6.07789 11.8571 6.21196 11.8016 6.31082 11.7027L11.5792 6.4343C11.6282 6.38537 11.667 6.32726 11.6936 6.26331C11.7201 6.19935 11.7337 6.13079 11.7337 6.06156C11.7337 5.99232 11.7201 5.92376 11.6936 5.85981C11.667 5.79585 11.6282 5.73774 11.5792 5.68882Z" fill="white"/>
</svg>
